# xmcd
#
# Track frame offsets:
#	150
#	16497
#	38561
#	54086
#	70248
#	83848
#	101586
#	119661
#	137645
#	150624
#	164822
#	183048
#
# Disc length: 2836 seconds
#
# Revision: 6
# Processed by: cddbd v1.5.2PL0 Copyright (c) Steve Scherf et al.
# Submitted via: audiograbber 1.83.01
#
DISCID=970b120c
DTITLE=Calogero - Les Feux D'Artifice
DYEAR=2014
DGENRE=Variété Française
TTITLE0=Fidèle
TTITLE1=Un Jour Au Mauvais Endroit
TTITLE2=Le Monde Moderne
TTITLE3=Conduire En Angleterre (Chanson Pour Les Gauchers)
TTITLE4=Le Portrait
TTITLE5=L'éclipse
TTITLE6=Avant Toi
TTITLE7=Elle Me Manque Déjà
TTITLE8=La Boite À Musique
TTITLE9=J'ai Le Droit Aussi
TTITLE10=Cristal
TTITLE11=Les Feux D'artifice
EXTD=
EXTT0=
EXTT1=
EXTT2=
EXTT3=
EXTT4=
EXTT5=
EXTT6=
EXTT7=
EXTT8=
EXTT9=
EXTT10=
EXTT11=
PLAYORDER=
